<?xml version="1.0" encoding="UTF-8" standalone="no"?>
<!DOCTYPE svg PUBLIC "-//W3C//DTD SVG 1.1//EN"
 "http://www.w3.org/Graphics/SVG/1.1/DTD/svg11.dtd">
<!-- Generated by graphviz version 14.0.5 (0)
 -->
<!-- Title: yard Pages: 1 -->
<svg width="1373pt" height="328pt"
 viewBox="0.00 0.00 1373.00 328.00" xmlns="http://www.w3.org/2000/svg" xmlns:xlink="http://www.w3.org/1999/xlink">
<g id="graph0" class="graph" transform="scale(1 1) rotate(0) translate(4 323.75)">
<title>yard</title>
<polygon fill="white" stroke="none" points="-4,4 -4,-323.75 1368.5,-323.75 1368.5,4 -4,4"/>
<g id="clust1" class="cluster">
<title>cluster_</title>
<polygon fill="none" stroke="black" points="87.5,-8 87.5,-311.75 1356.5,-311.75 1356.5,-8 87.5,-8"/>
</g>
<g id="clust3" class="cluster">
<title>cluster_Sinlog</title>
<polygon fill="none" stroke="black" points="95.5,-33.88 95.5,-238.12 834.5,-238.12 834.5,-33.88 95.5,-33.88"/>
<text xml:space="preserve" text-anchor="middle" x="465" y="-220.82" font-family="Times,serif" font-size="14.00">Sinlog</text>
</g>
<!-- Root -->
<g id="node1" class="node">
<title>Root</title>
<polygon fill="none" stroke="black" points="0,-85.5 0,-161.25 79,-161.25 79,-85.5 0,-85.5"/>
<text xml:space="preserve" text-anchor="middle" x="39.5" y="-143.95" font-family="Times,serif" font-size="14.00">root root</text>
<polyline fill="none" stroke="black" points="0,-136 79,-136"/>
<text xml:space="preserve" text-anchor="middle" x="39.5" y="-118.7" font-family="Times,serif" font-size="14.00"> </text>
<polyline fill="none" stroke="black" points="0,-110.75 79,-110.75"/>
<text xml:space="preserve" text-anchor="middle" x="39.5" y="-93.45" font-family="Times,serif" font-size="14.00"> </text>
</g>
<!-- Sinlog -->
<g id="node2" class="node">
<title>Sinlog</title>
<polygon fill="none" stroke="black" points="844.38,-16.5 844.38,-230.25 1078.62,-230.25 1078.62,-16.5 844.38,-16.5"/>
<text xml:space="preserve" text-anchor="middle" x="961.5" y="-212.95" font-family="Times,serif" font-size="14.00">module Sinlog</text>
<polyline fill="none" stroke="black" points="844.38,-205 1078.62,-205"/>
<text xml:space="preserve" text-anchor="middle" x="961.5" y="-187.7" font-family="Times,serif" font-size="14.00"> </text>
<polyline fill="none" stroke="black" points="844.38,-179.75 1078.62,-179.75"/>
<text xml:space="preserve" text-anchor="start" x="852.38" y="-162.45" font-family="Times,serif" font-size="14.00">+ as_log_level : Integer</text>
<text xml:space="preserve" text-anchor="start" x="852.38" y="-145.2" font-family="Times,serif" font-size="14.00">+ dbg : Boolean</text>
<text xml:space="preserve" text-anchor="start" x="852.38" y="-127.95" font-family="Times,serif" font-size="14.00">+ err : Boolean</text>
<text xml:space="preserve" text-anchor="start" x="852.38" y="-110.7" font-family="Times,serif" font-size="14.00">+ fatal : Boolean</text>
<text xml:space="preserve" text-anchor="start" x="852.38" y="-93.45" font-family="Times,serif" font-size="14.00">+ info : Boolean</text>
<text xml:space="preserve" text-anchor="start" x="852.38" y="-76.2" font-family="Times,serif" font-size="14.00">+ instance : &lt;Sinlog::Logger&gt;</text>
<text xml:space="preserve" text-anchor="start" x="852.38" y="-58.95" font-family="Times,serif" font-size="14.00">+ logger : StdLogger</text>
<text xml:space="preserve" text-anchor="start" x="852.38" y="-41.7" font-family="Times,serif" font-size="14.00">+ unk : Boolean</text>
<text xml:space="preserve" text-anchor="start" x="852.38" y="-24.45" font-family="Times,serif" font-size="14.00">+ warn : Boolean</text>
</g>
<!-- Sinlog_Logger -->
<g id="node3" class="node">
<title>Sinlog_Logger</title>
<polygon fill="none" stroke="black" points="1096.75,-68.25 1096.75,-178.5 1348.25,-178.5 1348.25,-68.25 1096.75,-68.25"/>
<text xml:space="preserve" text-anchor="middle" x="1222.5" y="-161.2" font-family="Times,serif" font-size="14.00">class Logger</text>
<polyline fill="none" stroke="black" points="1096.75,-153.25 1348.25,-153.25"/>
<text xml:space="preserve" text-anchor="start" x="1104.75" y="-135.95" font-family="Times,serif" font-size="14.00">+ #logger [R]</text>
<polyline fill="none" stroke="black" points="1096.75,-128 1348.25,-128"/>
<text xml:space="preserve" text-anchor="start" x="1104.75" y="-110.7" font-family="Times,serif" font-size="14.00">+ logger : StdLogger</text>
<text xml:space="preserve" text-anchor="start" x="1104.75" y="-93.45" font-family="Times,serif" font-size="14.00">+ #initialize : self</text>
<text xml:space="preserve" text-anchor="start" x="1104.75" y="-76.2" font-family="Times,serif" font-size="14.00">+ #set_level_from_env! : Integer</text>
</g>
<!-- Singleton -->
<g id="node4" class="node">
<title>Singleton</title>
<polygon fill="none" stroke="black" points="1180.38,-267.25 1180.38,-303.25 1264.62,-303.25 1264.62,-267.25 1180.38,-267.25"/>
<text xml:space="preserve" text-anchor="middle" x="1222.5" y="-280.57" font-family="Times,serif" font-size="14.00">Singleton</text>
</g>
<!-- Sinlog_Logger&#45;&gt;Singleton -->
<g id="edge1" class="edge">
<title>Sinlog_Logger&#45;&gt;Singleton</title>
<path fill="none" stroke="black" stroke-dasharray="1,5" d="M1222.5,-178.95C1222.5,-204.66 1222.5,-234.27 1222.5,-255.53"/>
<polygon fill="black" stroke="black" points="1219,-255.48 1222.5,-265.48 1226,-255.48 1219,-255.48"/>
</g>
<!-- Sinlog_Proc -->
<g id="node5" class="node">
<title>Sinlog_Proc</title>
<polygon fill="none" stroke="black" points="103.88,-42.38 103.88,-204.38 227.12,-204.38 227.12,-42.38 103.88,-42.38"/>
<text xml:space="preserve" text-anchor="middle" x="165.5" y="-187.07" font-family="Times,serif" font-size="14.00">module Proc</text>
<polyline fill="none" stroke="black" points="103.88,-179.12 227.12,-179.12"/>
<text xml:space="preserve" text-anchor="middle" x="165.5" y="-161.82" font-family="Times,serif" font-size="14.00"> </text>
<polyline fill="none" stroke="black" points="103.88,-153.88 227.12,-153.88"/>
<text xml:space="preserve" text-anchor="start" x="111.88" y="-136.57" font-family="Times,serif" font-size="14.00">+ dbg : ::Proc</text>
<text xml:space="preserve" text-anchor="start" x="111.88" y="-119.33" font-family="Times,serif" font-size="14.00">+ err : ::Proc</text>
<text xml:space="preserve" text-anchor="start" x="111.88" y="-102.08" font-family="Times,serif" font-size="14.00">+ fatal : ::Proc</text>
<text xml:space="preserve" text-anchor="start" x="111.88" y="-84.83" font-family="Times,serif" font-size="14.00">+ info : ::Proc</text>
<text xml:space="preserve" text-anchor="start" x="111.88" y="-67.58" font-family="Times,serif" font-size="14.00">+ unk : ::Proc</text>
<text xml:space="preserve" text-anchor="start" x="111.88" y="-50.33" font-family="Times,serif" font-size="14.00">+ warn : ::Proc</text>
</g>
<!-- Sinlog_Mixin -->
<g id="node6" class="node">
<title>Sinlog_Mixin</title>
<polygon fill="none" stroke="black" points="244.75,-85.5 244.75,-161.25 358.25,-161.25 358.25,-85.5 244.75,-85.5"/>
<text xml:space="preserve" text-anchor="middle" x="301.5" y="-143.95" font-family="Times,serif" font-size="14.00">module Mixin</text>
<polyline fill="none" stroke="black" points="244.75,-136 358.25,-136"/>
<text xml:space="preserve" text-anchor="middle" x="301.5" y="-118.7" font-family="Times,serif" font-size="14.00"> </text>
<polyline fill="none" stroke="black" points="244.75,-110.75 358.25,-110.75"/>
<text xml:space="preserve" text-anchor="start" x="252.75" y="-93.45" font-family="Times,serif" font-size="14.00">+ included</text>
</g>
<!-- Sinlog_Refin -->
<g id="node7" class="node">
<title>Sinlog_Refin</title>
<polygon fill="none" stroke="black" points="376.25,-85.5 376.25,-161.25 486.75,-161.25 486.75,-85.5 376.25,-85.5"/>
<text xml:space="preserve" text-anchor="middle" x="431.5" y="-143.95" font-family="Times,serif" font-size="14.00">module Refin</text>
<polyline fill="none" stroke="black" points="376.25,-136 486.75,-136"/>
<text xml:space="preserve" text-anchor="middle" x="431.5" y="-118.7" font-family="Times,serif" font-size="14.00"> </text>
<polyline fill="none" stroke="black" points="376.25,-110.75 486.75,-110.75"/>
<text xml:space="preserve" text-anchor="middle" x="431.5" y="-93.45" font-family="Times,serif" font-size="14.00"> </text>
</g>
<!-- Sinlog_ShortRefin -->
<g id="node8" class="node">
<title>Sinlog_ShortRefin</title>
<polygon fill="none" stroke="black" points="504.38,-85.5 504.38,-161.25 654.62,-161.25 654.62,-85.5 504.38,-85.5"/>
<text xml:space="preserve" text-anchor="middle" x="579.5" y="-143.95" font-family="Times,serif" font-size="14.00">module ShortRefin</text>
<polyline fill="none" stroke="black" points="504.38,-136 654.62,-136"/>
<text xml:space="preserve" text-anchor="middle" x="579.5" y="-118.7" font-family="Times,serif" font-size="14.00"> </text>
<polyline fill="none" stroke="black" points="504.38,-110.75 654.62,-110.75"/>
<text xml:space="preserve" text-anchor="middle" x="579.5" y="-93.45" font-family="Times,serif" font-size="14.00"> </text>
</g>
<!-- Sinlog_ShortMixin -->
<g id="node9" class="node">
<title>Sinlog_ShortMixin</title>
<polygon fill="none" stroke="black" points="672.88,-85.5 672.88,-161.25 826.12,-161.25 826.12,-85.5 672.88,-85.5"/>
<text xml:space="preserve" text-anchor="middle" x="749.5" y="-143.95" font-family="Times,serif" font-size="14.00">module ShortMixin</text>
<polyline fill="none" stroke="black" points="672.88,-136 826.12,-136"/>
<text xml:space="preserve" text-anchor="middle" x="749.5" y="-118.7" font-family="Times,serif" font-size="14.00"> </text>
<polyline fill="none" stroke="black" points="672.88,-110.75 826.12,-110.75"/>
<text xml:space="preserve" text-anchor="start" x="680.88" y="-93.45" font-family="Times,serif" font-size="14.00">+ included</text>
</g>
</g>
</svg>
